<mxfile host="Electron" modified="2024-06-18T19:24:13.740Z" agent="Mozilla/5.0 (Macintosh; Intel Mac OS X 10_15_7) AppleWebKit/537.36 (KHTML, like Gecko) draw.io/24.5.3 Chrome/124.0.6367.207 Electron/30.0.6 Safari/537.36" etag="OOZZFDXxd18oDCw2zuTq" version="24.5.3" type="device">
  <diagram name="Page-1" id="pO7Xow6JVUnmQM5lFGKW">
    <mxGraphModel dx="2074" dy="1559" grid="1" gridSize="10" guides="1" tooltips="1" connect="1" arrows="1" fold="1" page="0" pageScale="1" pageWidth="850" pageHeight="1100" math="0" shadow="0">
      <root>
        <mxCell id="0" />
        <mxCell id="1" parent="0" />
        <mxCell id="_0XaN6IW0FEXzdqQTNcH-103" style="edgeStyle=orthogonalEdgeStyle;rounded=0;orthogonalLoop=1;jettySize=auto;html=1;" edge="1" parent="1" source="_0XaN6IW0FEXzdqQTNcH-1" target="_0XaN6IW0FEXzdqQTNcH-4">
          <mxGeometry relative="1" as="geometry">
            <Array as="points">
              <mxPoint x="340" y="110" />
              <mxPoint x="190" y="110" />
            </Array>
          </mxGeometry>
        </mxCell>
        <mxCell id="_0XaN6IW0FEXzdqQTNcH-104" style="edgeStyle=orthogonalEdgeStyle;rounded=0;orthogonalLoop=1;jettySize=auto;html=1;entryX=0.5;entryY=0;entryDx=0;entryDy=0;" edge="1" parent="1" source="_0XaN6IW0FEXzdqQTNcH-1" target="_0XaN6IW0FEXzdqQTNcH-79">
          <mxGeometry relative="1" as="geometry" />
        </mxCell>
        <mxCell id="_0XaN6IW0FEXzdqQTNcH-105" style="edgeStyle=orthogonalEdgeStyle;rounded=0;orthogonalLoop=1;jettySize=auto;html=1;entryX=0.5;entryY=0;entryDx=0;entryDy=0;" edge="1" parent="1" source="_0XaN6IW0FEXzdqQTNcH-1" target="_0XaN6IW0FEXzdqQTNcH-80">
          <mxGeometry relative="1" as="geometry">
            <Array as="points">
              <mxPoint x="340" y="110" />
              <mxPoint x="490" y="110" />
            </Array>
          </mxGeometry>
        </mxCell>
        <mxCell id="_0XaN6IW0FEXzdqQTNcH-1" value="Pull Request" style="rounded=1;whiteSpace=wrap;html=1;absoluteArcSize=1;arcSize=14;strokeWidth=2;" vertex="1" parent="1">
          <mxGeometry x="290" y="-20" width="100" height="70" as="geometry" />
        </mxCell>
        <mxCell id="_0XaN6IW0FEXzdqQTNcH-106" style="edgeStyle=orthogonalEdgeStyle;rounded=0;orthogonalLoop=1;jettySize=auto;html=1;entryX=0.5;entryY=0;entryDx=0;entryDy=0;" edge="1" parent="1" source="_0XaN6IW0FEXzdqQTNcH-4" target="_0XaN6IW0FEXzdqQTNcH-39">
          <mxGeometry relative="1" as="geometry">
            <Array as="points">
              <mxPoint x="190" y="360" />
              <mxPoint x="340" y="360" />
            </Array>
          </mxGeometry>
        </mxCell>
        <mxCell id="_0XaN6IW0FEXzdqQTNcH-4" value="&lt;div&gt;&lt;b&gt;&lt;u&gt;Check For Alarm Updates&lt;/u&gt;&lt;/b&gt;&lt;/div&gt;&lt;div&gt;&lt;b&gt;&lt;u&gt;&lt;br&gt;&lt;/u&gt;&lt;/b&gt;&lt;/div&gt;&lt;div style=&quot;text-align: left;&quot;&gt;- Checks to see if the Notify Alarm Spreadsheet Needs to be Updated&lt;/div&gt;" style="rounded=1;whiteSpace=wrap;html=1;absoluteArcSize=1;arcSize=14;strokeWidth=2;verticalAlign=top;" vertex="1" parent="1">
          <mxGeometry x="130" y="160" width="120" height="140" as="geometry" />
        </mxCell>
        <mxCell id="_0XaN6IW0FEXzdqQTNcH-22" value="&lt;div&gt;&lt;span style=&quot;text-align: left; background-color: initial;&quot;&gt;&lt;b&gt;&lt;u&gt;Generate OSSF Scorecard&lt;/u&gt;&lt;/b&gt;&lt;/span&gt;&lt;/div&gt;&lt;div&gt;&lt;span style=&quot;background-color: initial; text-align: left;&quot;&gt;&lt;br&gt;&lt;/span&gt;&lt;/div&gt;&lt;div style=&quot;text-align: left;&quot;&gt;&lt;span style=&quot;background-color: initial;&quot;&gt;- Analyze Code&lt;/span&gt;&lt;/div&gt;&lt;div style=&quot;text-align: left;&quot;&gt;&lt;span style=&quot;background-color: initial;&quot;&gt;&lt;br&gt;&lt;/span&gt;&lt;/div&gt;&lt;div style=&quot;text-align: left;&quot;&gt;- Publish results to CDS Sentinel&lt;/div&gt;" style="rounded=1;whiteSpace=wrap;html=1;absoluteArcSize=1;arcSize=14;strokeWidth=2;verticalAlign=top;" vertex="1" parent="1">
          <mxGeometry x="430" y="760" width="120" height="200" as="geometry" />
        </mxCell>
        <mxCell id="_0XaN6IW0FEXzdqQTNcH-23" value="&lt;div&gt;&lt;b&gt;&lt;u&gt;Build/Push Github ARC Runner&lt;/u&gt;&lt;/b&gt;&lt;/div&gt;&lt;div&gt;&lt;br&gt;&lt;/div&gt;&lt;div style=&quot;text-align: left;&quot;&gt;- Checks to see if the Github ARC Runner image has changed, and builds/pushes this in production.&lt;/div&gt;&lt;div style=&quot;text-align: left;&quot;&gt;&lt;br&gt;&lt;/div&gt;&lt;div style=&quot;text-align: left;&quot;&gt;- Generates docker SBOM&lt;/div&gt;" style="rounded=1;whiteSpace=wrap;html=1;absoluteArcSize=1;arcSize=14;strokeWidth=2;verticalAlign=top;" vertex="1" parent="1">
          <mxGeometry x="130" y="760" width="120" height="200" as="geometry" />
        </mxCell>
        <mxCell id="_0XaN6IW0FEXzdqQTNcH-24" value="&lt;div&gt;&lt;b&gt;&lt;u&gt;Merge to Main Production&lt;/u&gt;&lt;/b&gt;&lt;/div&gt;&lt;div&gt;&lt;br&gt;&lt;/div&gt;&lt;div style=&quot;text-align: left;&quot;&gt;- Terragrunt Apply to Production&lt;/div&gt;&lt;div style=&quot;text-align: left;&quot;&gt;&lt;span style=&quot;background-color: initial; color: rgba(0, 0, 0, 0); font-family: monospace; font-size: 0px; text-wrap: nowrap;&quot;&gt;%3CmxGraphModel%3E%3Croot%3E%3CmxCell%20id%3D%220%22%2F%3E%3CmxCell%20id%3D%221%22%20parent%3D%220%22%2F%3E%3CmxCell%20id%3D%222%22%20value%3D%22%26lt%3Bdiv%26gt%3B%26lt%3Bb%26gt%3B%26lt%3Bu%26gt%3BCodeQL%26lt%3B%2Fu%26gt%3B%26lt%3B%2Fb%26gt%3B%26lt%3B%2Fdiv%26gt%3B%26lt%3Bdiv%26gt%3B%26lt%3Bbr%26gt%3B%26lt%3B%2Fdiv%26gt%3B%26lt%3Bdiv%20style%3D%26quot%3Btext-align%3A%20left%3B%26quot%3B%26gt%3B-%20Analyze%20Javascript%26lt%3B%2Fdiv%26gt%3B%26lt%3Bdiv%20style%3D%26quot%3Btext-align%3A%20left%3B%26quot%3B%26gt%3B%26lt%3Bbr%26gt%3B%26lt%3B%2Fdiv%26gt%3B%26lt%3Bdiv%20style%3D%26quot%3Btext-align%3A%20left%3B%26quot%3B%26gt%3B-%20Analyze%20Python%26lt%3B%2Fdiv%26gt%3B%26lt%3Bdiv%20style%3D%26quot%3Btext-align%3A%20left%3B%26quot%3B%26gt%3B%26lt%3Bbr%26gt%3B%26lt%3B%2Fdiv%26gt%3B%22%20style%3D%22rounded%3D1%3BwhiteSpace%3Dwrap%3Bhtml%3D1%3BabsoluteArcSize%3D1%3BarcSize%3D14%3BstrokeWidth%3D2%3BverticalAlign%3Dtop%3B%22%20vertex%3D%221%22%20parent%3D%221%22%3E%3CmxGeometry%20x%3D%22130%22%20y%3D%22710%22%20width%3D%22120%22%20height%3D%22200%22%20as%3D%22geometry%22%2F%3E%3C%2FmxCell%3E%3C%2Froot%3E%3C%2FmxGraphModel%3E&lt;/span&gt;&lt;/div&gt;" style="rounded=1;whiteSpace=wrap;html=1;absoluteArcSize=1;arcSize=14;strokeWidth=2;verticalAlign=top;" vertex="1" parent="1">
          <mxGeometry x="280" y="760" width="120" height="200" as="geometry" />
        </mxCell>
        <mxCell id="_0XaN6IW0FEXzdqQTNcH-115" style="edgeStyle=orthogonalEdgeStyle;rounded=0;orthogonalLoop=1;jettySize=auto;html=1;entryX=0.5;entryY=0;entryDx=0;entryDy=0;" edge="1" parent="1" source="_0XaN6IW0FEXzdqQTNcH-39" target="_0XaN6IW0FEXzdqQTNcH-41">
          <mxGeometry relative="1" as="geometry" />
        </mxCell>
        <mxCell id="_0XaN6IW0FEXzdqQTNcH-39" value="Tests Passed and Approved?" style="shape=rhombus;html=1;dashed=0;whiteSpace=wrap;perimeter=rhombusPerimeter;" vertex="1" parent="1">
          <mxGeometry x="275" y="410" width="130" height="140" as="geometry" />
        </mxCell>
        <mxCell id="_0XaN6IW0FEXzdqQTNcH-109" style="edgeStyle=orthogonalEdgeStyle;rounded=0;orthogonalLoop=1;jettySize=auto;html=1;" edge="1" parent="1" source="_0XaN6IW0FEXzdqQTNcH-41" target="_0XaN6IW0FEXzdqQTNcH-23">
          <mxGeometry relative="1" as="geometry">
            <Array as="points">
              <mxPoint x="340" y="720" />
              <mxPoint x="190" y="720" />
            </Array>
          </mxGeometry>
        </mxCell>
        <mxCell id="_0XaN6IW0FEXzdqQTNcH-110" style="edgeStyle=orthogonalEdgeStyle;rounded=0;orthogonalLoop=1;jettySize=auto;html=1;entryX=0.5;entryY=0;entryDx=0;entryDy=0;" edge="1" parent="1" source="_0XaN6IW0FEXzdqQTNcH-41" target="_0XaN6IW0FEXzdqQTNcH-24">
          <mxGeometry relative="1" as="geometry" />
        </mxCell>
        <mxCell id="_0XaN6IW0FEXzdqQTNcH-111" style="edgeStyle=orthogonalEdgeStyle;rounded=0;orthogonalLoop=1;jettySize=auto;html=1;entryX=0.5;entryY=0;entryDx=0;entryDy=0;" edge="1" parent="1" source="_0XaN6IW0FEXzdqQTNcH-41" target="_0XaN6IW0FEXzdqQTNcH-22">
          <mxGeometry relative="1" as="geometry">
            <Array as="points">
              <mxPoint x="340" y="720" />
              <mxPoint x="490" y="720" />
            </Array>
          </mxGeometry>
        </mxCell>
        <mxCell id="_0XaN6IW0FEXzdqQTNcH-41" value="Release To Production" style="rounded=1;whiteSpace=wrap;html=1;absoluteArcSize=1;arcSize=14;strokeWidth=2;" vertex="1" parent="1">
          <mxGeometry x="290" y="620" width="100" height="70" as="geometry" />
        </mxCell>
        <mxCell id="_0XaN6IW0FEXzdqQTNcH-107" style="edgeStyle=orthogonalEdgeStyle;rounded=0;orthogonalLoop=1;jettySize=auto;html=1;entryX=0.5;entryY=0;entryDx=0;entryDy=0;" edge="1" parent="1" source="_0XaN6IW0FEXzdqQTNcH-79" target="_0XaN6IW0FEXzdqQTNcH-39">
          <mxGeometry relative="1" as="geometry" />
        </mxCell>
        <mxCell id="_0XaN6IW0FEXzdqQTNcH-79" value="&lt;div&gt;&lt;b&gt;&lt;u&gt;Terraform Security Scan&lt;/u&gt;&lt;/b&gt;&lt;/div&gt;&lt;div&gt;&lt;b&gt;&lt;u&gt;&lt;br&gt;&lt;/u&gt;&lt;/b&gt;&lt;/div&gt;&lt;div style=&quot;text-align: left;&quot;&gt;- Runs Checkov against the TF Infrastructure&lt;/div&gt;" style="rounded=1;whiteSpace=wrap;html=1;absoluteArcSize=1;arcSize=14;strokeWidth=2;verticalAlign=top;" vertex="1" parent="1">
          <mxGeometry x="280" y="160" width="120" height="140" as="geometry" />
        </mxCell>
        <mxCell id="_0XaN6IW0FEXzdqQTNcH-108" style="edgeStyle=orthogonalEdgeStyle;rounded=0;orthogonalLoop=1;jettySize=auto;html=1;entryX=0.5;entryY=0;entryDx=0;entryDy=0;" edge="1" parent="1" source="_0XaN6IW0FEXzdqQTNcH-80" target="_0XaN6IW0FEXzdqQTNcH-39">
          <mxGeometry relative="1" as="geometry">
            <Array as="points">
              <mxPoint x="490" y="360" />
              <mxPoint x="340" y="360" />
            </Array>
          </mxGeometry>
        </mxCell>
        <mxCell id="_0XaN6IW0FEXzdqQTNcH-80" value="&lt;div&gt;&lt;b&gt;&lt;u&gt;Terragrunt Plan Production&lt;/u&gt;&lt;/b&gt;&lt;/div&gt;&lt;div&gt;&lt;b&gt;&lt;u&gt;&lt;br&gt;&lt;/u&gt;&lt;/b&gt;&lt;/div&gt;&lt;div style=&quot;text-align: left;&quot;&gt;- Generates a Terragrunt Plan and posts the changes to the Pull Request&lt;/div&gt;" style="rounded=1;whiteSpace=wrap;html=1;absoluteArcSize=1;arcSize=14;strokeWidth=2;verticalAlign=top;" vertex="1" parent="1">
          <mxGeometry x="430" y="160" width="120" height="140" as="geometry" />
        </mxCell>
        <mxCell id="_0XaN6IW0FEXzdqQTNcH-114" style="edgeStyle=orthogonalEdgeStyle;rounded=0;orthogonalLoop=1;jettySize=auto;html=1;entryX=0.5;entryY=0;entryDx=0;entryDy=0;" edge="1" parent="1" source="_0XaN6IW0FEXzdqQTNcH-113" target="_0XaN6IW0FEXzdqQTNcH-1">
          <mxGeometry relative="1" as="geometry" />
        </mxCell>
        <mxCell id="_0XaN6IW0FEXzdqQTNcH-113" value="Change&lt;div&gt;infrastructure_version&lt;/div&gt;" style="rounded=1;whiteSpace=wrap;html=1;absoluteArcSize=1;arcSize=14;strokeWidth=2;" vertex="1" parent="1">
          <mxGeometry x="240" y="-150" width="200" height="70" as="geometry" />
        </mxCell>
      </root>
    </mxGraphModel>
  </diagram>
</mxfile>
